<?xml version="1.0" standalone="no"?>
<!DOCTYPE svg PUBLIC "-//W3C//DTD SVG 20010904//EN"
 "http://www.w3.org/TR/2001/REC-SVG-20010904/DTD/svg10.dtd">
<svg version="1.0" xmlns="http://www.w3.org/2000/svg"
 width="512.000000pt" height="512.000000pt" viewBox="0 0 512.000000 512.000000"
 preserveAspectRatio="xMidYMid meet">
<metadata>
Created by potrace 1.11, written by Peter Selinger 2001-2013
</metadata>
<g transform="translate(0.000000,512.000000) scale(0.100000,-0.100000)"
fill="#000000" stroke="none">
<path d="M2438 4455 c-20 -14 -39 -34 -43 -45 -3 -11 -11 -20 -16 -20 -5 0 -9
-7 -9 -15 0 -9 -8 -32 -19 -53 -21 -42 -56 -180 -61 -237 -1 -13 -10 -3 -25
30 -12 28 -21 53 -19 56 2 4 -3 10 -12 13 -8 3 -13 10 -10 15 4 5 3 11 -1 13
-19 8 -63 71 -57 80 4 7 2 8 -4 4 -6 -4 -23 0 -36 9 -40 27 -68 16 -93 -35
-18 -38 -22 -61 -21 -145 1 -55 5 -107 9 -116 6 -11 4 -21 -5 -28 -11 -9 -18
-4 -35 24 -12 20 -18 41 -15 47 4 7 2 8 -4 4 -6 -4 -16 4 -23 16 -7 12 -18 29
-25 36 -8 7 -17 19 -21 26 -13 22 -84 66 -107 66 -12 0 -32 -7 -44 -15 -19
-14 -21 -22 -17 -78 2 -34 9 -77 14 -94 5 -18 7 -33 4 -33 -3 0 0 -7 7 -15 11
-13 10 -14 -4 -9 -9 3 -16 13 -16 21 0 8 -5 11 -10 8 -6 -3 -13 1 -16 9 -3 9
-12 16 -20 16 -8 0 -14 4 -14 9 0 5 -13 14 -30 21 -16 7 -30 16 -30 21 0 5 -3
8 -7 8 -19 -3 -34 2 -29 9 10 17 -86 4 -106 -14 -26 -24 -21 -93 10 -153 12
-23 18 -41 14 -41 -4 0 0 -5 8 -10 11 -8 7 -8 -15 -3 -124 31 -158 -43 -73
-161 15 -21 25 -43 21 -49 -3 -5 -2 -7 4 -4 5 3 22 -8 39 -25 29 -32 29 -32 4
-24 -139 43 -152 46 -245 52 -61 5 -89 2 -117 -10 -60 -26 -63 -75 -8 -138
l29 -33 -30 -14 c-47 -23 -48 -73 -2 -119 7 -8 10 -18 7 -24 -4 -7 -2 -8 4 -4
14 8 64 -23 56 -35 -3 -5 3 -6 12 -2 13 5 15 3 9 -7 -5 -8 -4 -11 2 -7 6 4 30
-1 53 -12 31 -14 37 -20 25 -25 -26 -9 -37 -7 -30 7 4 6 0 4 -8 -6 -9 -10 -18
-18 -21 -17 -11 3 -69 -11 -129 -31 -134 -43 -237 -121 -237 -180 0 -31 64
-102 95 -105 23 -3 55 -17 55 -25 0 -5 7 -6 15 -3 8 4 15 1 15 -5 0 -6 7 -8
17 -4 9 4 14 2 11 -3 -4 -5 6 -10 20 -10 63 -4 97 -12 94 -23 -1 -8 2 -9 10
-4 21 13 62 9 76 -7 10 -13 11 -12 5 4 -4 12 -3 17 4 13 6 -4 46 -7 89 -8 l77
-1 -68 -29 c-103 -44 -200 -112 -220 -155 -21 -45 -9 -81 32 -90 15 -3 35 -8
43 -11 27 -11 40 -11 34 -2 -3 5 9 9 25 9 17 0 31 -4 31 -10 0 -5 5 -10 10
-10 6 0 9 3 8 8 -2 4 -1 8 2 9 3 1 18 6 33 12 20 8 26 8 21 0 -3 -6 6 -3 22 7
29 18 29 18 14 -1 -14 -19 -64 -76 -86 -99 -63 -67 -147 -213 -163 -285 -11
-50 3 -109 27 -118 9 -4 20 -11 24 -17 5 -7 8 -5 8 4 0 13 1 13 10 0 5 -8 10
-10 10 -4 0 6 10 10 23 9 12 -2 21 -8 19 -14 -1 -7 2 -10 8 -6 6 3 7 11 4 17
-5 7 0 9 14 6 14 -4 20 -2 16 4 -4 6 2 8 16 3 14 -5 20 -3 16 3 -3 6 8 13 26
17 18 4 43 14 55 22 12 8 26 12 32 9 5 -3 12 1 15 10 4 9 13 14 22 10 8 -3 13
-2 11 2 -3 4 25 27 62 52 36 25 75 53 86 63 10 9 25 15 32 13 6 -3 10 0 8 7
-3 7 7 21 22 31 26 19 26 19 18 0 -4 -10 -21 -64 -37 -119 -38 -131 -44 -248
-16 -323 12 -32 24 -50 30 -45 8 4 9 0 5 -13 -6 -16 -5 -17 5 -4 16 19 62 25
53 7 -4 -6 -1 -5 7 4 7 8 20 18 28 22 8 4 24 13 35 21 20 15 20 13 20 -70 0
-79 2 -87 25 -106 14 -11 24 -25 22 -30 -1 -5 6 -4 17 1 10 6 21 8 23 5 3 -2
11 2 17 10 7 8 19 12 27 9 10 -4 12 0 7 13 -6 17 -5 17 10 5 15 -12 17 -12 12
1 -3 8 3 24 14 36 10 13 34 47 52 77 18 30 36 52 40 50 4 -3 6 3 5 13 0 9 4
16 11 15 6 -1 10 5 8 15 -1 9 3 24 11 32 7 8 13 17 13 20 3 25 36 88 44 83 6
-4 8 0 4 10 -3 10 -2 17 3 17 6 0 9 3 9 8 -4 21 2 42 12 42 6 0 9 -9 6 -20 -3
-11 -2 -20 3 -20 6 0 22 -63 34 -130 1 -3 4 -9 7 -15 4 -5 12 -28 18 -50 21
-69 44 -121 88 -194 18 -30 30 -58 27 -63 -3 -5 -2 -7 3 -6 4 2 28 -18 52 -45
24 -26 50 -47 58 -47 10 0 13 -6 9 -16 -5 -14 -4 -15 9 -4 8 7 21 10 30 7 8
-4 17 -2 20 4 4 5 11 7 16 4 5 -4 9 -1 9 5 0 6 4 8 10 5 6 -3 7 1 4 9 -3 9 -1
16 5 16 6 0 10 3 9 8 -1 4 4 20 10 35 7 16 12 33 12 38 0 6 5 7 10 4 6 -3 10
-1 10 4 0 6 -4 11 -9 11 -4 0 -6 11 -4 24 4 18 10 23 25 21 12 -3 17 -1 14 3
-4 4 -13 7 -19 7 -7 1 -10 7 -8 15 1 8 4 38 5 67 1 40 4 49 14 41 8 -7 12 -7
12 1 0 6 5 11 11 11 5 0 7 -6 4 -12 -4 -7 1 -4 10 7 10 13 18 16 23 9 4 -6 23
-30 43 -55 20 -24 96 -132 170 -239 342 -503 675 -911 819 -1006 42 -28 68
-28 162 -3 l37 10 -90 107 c-50 59 -115 144 -145 190 -30 45 -117 165 -191
265 -160 213 -287 393 -326 460 -31 53 -177 250 -190 255 -4 2 -3 10 4 18 15
19 7 151 -15 239 -2 6 -6 19 -10 30 -5 11 -12 32 -18 47 -5 15 -7 32 -3 38 3
6 1 9 -5 8 -7 -2 -21 17 -31 41 l-19 44 22 -15 c12 -8 24 -21 26 -29 3 -11 1
-11 -8 1 -10 13 -11 13 -7 0 2 -8 10 -15 18 -15 21 0 70 -36 63 -46 -3 -5 -1
-8 4 -7 10 3 78 -42 112 -74 10 -9 20 -14 23 -12 2 2 17 -8 33 -23 16 -15 29
-25 29 -23 0 1 10 0 23 -4 12 -4 19 -12 16 -18 -4 -6 -2 -8 4 -5 5 4 30 -1 54
-11 39 -17 57 -18 139 -9 9 1 16 8 15 17 -1 8 4 14 10 13 16 -3 13 68 -3 85
-6 7 -10 21 -8 32 2 11 1 19 -3 17 -4 -1 -8 1 -9 6 -2 4 -12 17 -23 29 -11 12
-20 28 -20 35 0 7 -4 13 -10 13 -5 0 -10 5 -10 11 0 6 -10 19 -22 30 -23 19
-23 19 10 3 17 -8 32 -20 32 -25 0 -5 3 -8 8 -7 11 3 99 -40 116 -58 10 -9 16
-11 16 -4 0 7 7 9 16 6 11 -4 18 1 21 14 6 21 30 22 25 1 -1 -6 2 -11 8 -11
14 0 12 11 -6 31 -15 17 -14 22 9 69 14 27 21 47 16 44 -15 -9 3 30 19 44 9 6
11 12 6 12 -6 0 -11 7 -11 15 0 8 4 12 9 9 4 -3 8 0 8 5 0 6 -4 11 -8 11 -5 0
-9 15 -10 33 -3 58 -11 98 -21 111 -7 9 -7 16 2 26 9 10 9 11 0 6 -7 -4 -17 3
-24 16 -6 13 -29 44 -50 70 -22 26 -39 50 -39 55 0 4 5 1 10 -7 5 -8 10 -10
10 -5 0 6 17 10 37 9 21 -1 50 2 66 7 20 6 25 5 20 -4 -4 -7 0 -7 10 1 9 8 21
11 27 7 5 -3 10 -1 10 6 0 6 8 9 20 6 10 -3 18 -2 17 2 -1 3 2 7 7 8 5 1 12 7
17 15 6 10 12 9 24 -7 16 -20 16 -19 5 3 -10 20 -7 25 10 24 11 -1 3 74 -10
94 -15 24 -108 84 -129 84 -7 0 -9 4 -6 10 4 6 -1 7 -11 3 -13 -5 -15 -3 -9 7
5 9 4 11 -3 6 -7 -4 -42 2 -79 13 -38 11 -98 25 -135 32 -43 8 -65 16 -61 23
4 6 0 5 -8 -1 -9 -7 -26 -11 -39 -8 -31 6 -38 15 -13 15 12 0 63 14 115 31 51
17 98 32 104 33 7 1 19 8 28 15 9 7 16 10 16 6 0 -4 7 -2 15 5 8 7 22 10 30 6
9 -3 14 -2 11 3 -5 8 1 13 29 22 6 1 19 11 30 21 10 10 25 16 33 13 7 -2 11
-1 9 3 -3 4 1 13 9 20 13 12 18 8 15 -11 -1 -5 3 -6 9 -2 6 3 8 10 5 15 -3 5
8 23 25 42 17 18 33 41 36 50 6 21 15 23 34 6 8 -7 6 -3 -4 9 -11 13 -16 31
-13 43 4 15 -4 27 -28 46 -35 26 -46 30 -137 46 -35 7 -55 15 -51 21 4 6 1 7
-8 1 -38 -24 -58 -7 -29 24 11 12 19 27 18 34 -2 7 2 12 7 11 6 -1 11 22 12
51 4 73 -22 97 -103 98 -70 1 -122 -7 -204 -32 -25 -7 -48 -14 -52 -16 -5 -1
-11 -3 -15 -4 -5 -1 -11 -2 -15 -1 -5 0 -8 -4 -8 -9 0 -6 -7 -10 -16 -10 -14
0 -14 1 0 16 9 8 14 20 11 25 -4 5 -1 9 4 9 6 0 11 7 11 16 0 8 3 13 8 11 4
-3 8 11 9 31 1 20 6 38 11 40 5 1 6 16 4 32 -3 20 0 30 8 30 7 0 0 10 -15 22
-18 14 -40 21 -62 20 -32 -3 -33 -1 -33 34 0 21 -5 53 -12 71 -14 38 -41 43
-101 18 -19 -8 -38 -11 -41 -7 -4 3 -4 -2 0 -13 5 -15 4 -17 -5 -9 -18 16 -3
77 18 70 13 -5 13 -4 -1 7 -14 11 -15 16 -5 27 9 10 9 11 0 6 -9 -5 -11 -2 -7
8 3 9 11 13 18 9 6 -4 5 1 -3 10 -7 9 -10 17 -5 17 5 0 2 5 -6 10 -9 6 -10 10
-3 10 8 0 6 15 -8 48 -28 67 -56 67 -140 1 -20 -16 -40 -25 -44 -21 -5 4 -5 2
-1 -5 5 -10 -45 -91 -93 -149 -6 -7 -7 -15 -4 -18 4 -3 1 -6 -5 -6 -6 0 -13
-8 -16 -17 -3 -10 -2 2 1 27 3 25 7 79 8 122 2 42 6 82 10 89 5 8 4 10 -3 5
-11 -6 -18 27 -13 57 0 4 -4 7 -10 7 -6 0 -8 7 -5 16 3 8 2 12 -4 9 -6 -3 -10
0 -10 8 0 43 -90 19 -125 -33 -11 -16 -23 -30 -27 -30 -4 0 -17 22 -28 49 -22
51 -71 105 -105 115 -13 4 -34 -3 -57 -19z m-403 -505 c2 -21 -10 -27 -20 -10
-8 13 3 45 12 36 4 -3 7 -15 8 -26z"/>
<path d="M3145 4120 c-3 -6 1 -7 9 -4 18 7 21 14 7 14 -6 0 -13 -4 -16 -10z"/>
<path d="M3370 3779 c0 -5 5 -7 10 -4 6 3 10 8 10 11 0 2 -4 4 -10 4 -5 0 -10
-5 -10 -11z"/>
<path d="M3806 3222 c-3 -5 1 -9 9 -9 8 0 12 4 9 9 -3 4 -7 8 -9 8 -2 0 -6 -4
-9 -8z"/>
<path d="M3702 3164 c10 -10 20 -16 22 -13 3 3 -5 11 -17 18 -21 13 -21 12 -5
-5z"/>
<path d="M3750 2719 c0 -5 5 -7 10 -4 6 3 10 8 10 11 0 2 -4 4 -10 4 -5 0 -10
-5 -10 -11z"/>
<path d="M1270 2516 c0 -2 8 -10 18 -17 15 -13 16 -12 3 4 -13 16 -21 21 -21
13z"/>
<path d="M1693 2225 c0 -8 4 -12 9 -9 5 3 6 10 3 15 -9 13 -12 11 -12 -6z"/>
<path d="M1553 2125 c0 -8 4 -12 9 -9 5 3 6 10 3 15 -9 13 -12 11 -12 -6z"/>
<path d="M1390 2056 c0 -2 8 -10 18 -17 15 -13 16 -12 3 4 -13 16 -21 21 -21
13z"/>
<path d="M1856 1798 c3 -5 10 -6 15 -3 13 9 11 12 -6 12 -8 0 -12 -4 -9 -9z"/>
<path d="M2750 1758 c0 -4 4 -8 9 -8 6 0 12 4 15 8 3 5 -1 9 -9 9 -8 0 -15 -4
-15 -9z"/>
<path d="M2713 1565 c0 -8 4 -12 9 -9 5 3 6 10 3 15 -9 13 -12 11 -12 -6z"/>
</g>
</svg>
